# xmcd CD database file
#
# Track frame offsets:
#	182
#	12010
#	24780
#	41525
#	54937
#	68185
#	78167
#	87512
#	105647
#	116637
#	131572
#	142937
#	157435
#	173110
#	188120
#	207092
#	226605
#	243907
#	259960
#	276247
#	284410
#	297085
#	305117
#
# Disc length: 4223 seconds
#
# Revision: 0
# Processed by: cddbd v1.5.2PL0 Copyright (c) Steve Scherf et al.
# Submitted via: CDex 1.77
#
DISCID=40107d17
DTITLE=East Meets West - New Frontiers - The Ancestors - XXI Century
DYEAR=1990
DGENRE=New Age
TTITLE0=Rain
TTITLE1=Tokyo Today
TTITLE2=East Meets West
TTITLE3=Meditation Mood
TTITLE4=Forbidden City
TTITLE5=Zen
TTITLE6=Butterfly
TTITLE7=Bamboo Garden
TTITLE8=Sakyamuni
TTITLE9=Buddah Cave
TTITLE10=House Of The Rising Sun
TTITLE11=Geisha
TTITLE12=Legend
TTITLE13=Windmill
TTITLE14=Voices From Beyound
TTITLE15=Whispering Souls
TTITLE16=Silk Road
TTITLE17=The Orginal Sin
TTITLE18=Spacelab
TTITLE19=Crystal Cave
TTITLE20=Queen Of The Tribbe
TTITLE21=Temple Moon
TTITLE22=White Forest
EXTD=YEAR: 1990
EXTT0=
EXTT1=
EXTT2=
EXTT3=
EXTT4=
EXTT5=
EXTT6=
EXTT7=
EXTT8=
EXTT9=
EXTT10=
EXTT11=
EXTT12=
EXTT13=
EXTT14=
EXTT15=
EXTT16=
EXTT17=
EXTT18=
EXTT19=
EXTT20=
EXTT21=
EXTT22=
PLAYORDER=
